<mxfile host="app.diagrams.net" modified="2020-11-02T09:04:09.138Z" agent="5.0 (Windows NT 10.0; Win64; x64) AppleWebKit/537.36 (KHTML, like Gecko) Chrome/86.0.4240.111 Safari/537.36" etag="yjZR2xcYKnAnFVEMgW_O" version="13.8.8" type="github">
  <diagram id="W_kFmEbQhOtJQZPxHqYe" name="Page-1">
    <mxGraphModel dx="865" dy="457" grid="1" gridSize="10" guides="1" tooltips="1" connect="1" arrows="1" fold="1" page="1" pageScale="1" pageWidth="827" pageHeight="1169" math="0" shadow="0">
      <root>
        <mxCell id="0" />
        <mxCell id="1" parent="0" />
        <mxCell id="3fCNhczJWAkTFVmn3b7Y-47" value="" style="rounded=0;whiteSpace=wrap;html=1;" vertex="1" parent="1">
          <mxGeometry x="80" y="340" width="690" height="454" as="geometry" />
        </mxCell>
        <mxCell id="3fCNhczJWAkTFVmn3b7Y-1" value="" style="rounded=0;whiteSpace=wrap;html=1;" vertex="1" parent="1">
          <mxGeometry x="354" y="555" width="120" height="60" as="geometry" />
        </mxCell>
        <mxCell id="3fCNhczJWAkTFVmn3b7Y-2" value="Arduino&lt;br&gt;NANO" style="text;html=1;strokeColor=none;fillColor=none;align=center;verticalAlign=middle;whiteSpace=wrap;rounded=0;" vertex="1" parent="1">
          <mxGeometry x="394" y="575" width="40" height="20" as="geometry" />
        </mxCell>
        <mxCell id="3fCNhczJWAkTFVmn3b7Y-3" value="" style="rounded=0;whiteSpace=wrap;html=1;" vertex="1" parent="1">
          <mxGeometry x="170" y="630" width="120" height="60" as="geometry" />
        </mxCell>
        <mxCell id="3fCNhczJWAkTFVmn3b7Y-4" value="20x04 I2C LCD Display" style="text;html=1;strokeColor=none;fillColor=none;align=center;verticalAlign=middle;whiteSpace=wrap;rounded=0;" vertex="1" parent="1">
          <mxGeometry x="170" y="635" width="120" height="50" as="geometry" />
        </mxCell>
        <mxCell id="3fCNhczJWAkTFVmn3b7Y-5" value="" style="rounded=0;whiteSpace=wrap;html=1;" vertex="1" parent="1">
          <mxGeometry x="474" y="430" width="120" height="60" as="geometry" />
        </mxCell>
        <mxCell id="3fCNhczJWAkTFVmn3b7Y-6" value="HC-12&amp;nbsp;&lt;br&gt;RF Module" style="text;html=1;strokeColor=none;fillColor=none;align=center;verticalAlign=middle;whiteSpace=wrap;rounded=0;" vertex="1" parent="1">
          <mxGeometry x="474" y="430" width="120" height="60" as="geometry" />
        </mxCell>
        <mxCell id="3fCNhczJWAkTFVmn3b7Y-7" value="" style="rounded=0;whiteSpace=wrap;html=1;" vertex="1" parent="1">
          <mxGeometry x="550" y="510" width="120" height="60" as="geometry" />
        </mxCell>
        <mxCell id="3fCNhczJWAkTFVmn3b7Y-8" value="RTC Module" style="text;html=1;strokeColor=none;fillColor=none;align=center;verticalAlign=middle;whiteSpace=wrap;rounded=0;" vertex="1" parent="1">
          <mxGeometry x="550" y="510" width="120" height="60" as="geometry" />
        </mxCell>
        <mxCell id="3fCNhczJWAkTFVmn3b7Y-9" value="" style="rounded=0;whiteSpace=wrap;html=1;" vertex="1" parent="1">
          <mxGeometry x="570" y="585" width="120" height="60" as="geometry" />
        </mxCell>
        <mxCell id="3fCNhczJWAkTFVmn3b7Y-10" value="Micro SD &lt;br&gt;Card Module" style="text;html=1;strokeColor=none;fillColor=none;align=center;verticalAlign=middle;whiteSpace=wrap;rounded=0;" vertex="1" parent="1">
          <mxGeometry x="570" y="590" width="120" height="50" as="geometry" />
        </mxCell>
        <mxCell id="3fCNhczJWAkTFVmn3b7Y-11" value="" style="rounded=0;whiteSpace=wrap;html=1;" vertex="1" parent="1">
          <mxGeometry x="300" y="440" width="120" height="60" as="geometry" />
        </mxCell>
        <mxCell id="3fCNhczJWAkTFVmn3b7Y-12" value="L7805 CV&lt;br&gt;Stabilizátor &lt;br&gt;+ Filtrovací C" style="text;html=1;strokeColor=none;fillColor=none;align=center;verticalAlign=middle;whiteSpace=wrap;rounded=0;" vertex="1" parent="1">
          <mxGeometry x="300" y="440" width="120" height="60" as="geometry" />
        </mxCell>
        <mxCell id="3fCNhczJWAkTFVmn3b7Y-13" value="" style="rounded=0;whiteSpace=wrap;html=1;" vertex="1" parent="1">
          <mxGeometry x="140" y="535" width="120" height="60" as="geometry" />
        </mxCell>
        <mxCell id="3fCNhczJWAkTFVmn3b7Y-14" value="Zdroj&lt;br&gt;2x18650" style="text;html=1;strokeColor=none;fillColor=none;align=center;verticalAlign=middle;whiteSpace=wrap;rounded=0;" vertex="1" parent="1">
          <mxGeometry x="140" y="540" width="120" height="50" as="geometry" />
        </mxCell>
        <mxCell id="3fCNhczJWAkTFVmn3b7Y-15" value="" style="rounded=0;whiteSpace=wrap;html=1;" vertex="1" parent="1">
          <mxGeometry x="320" y="680" width="120" height="60" as="geometry" />
        </mxCell>
        <mxCell id="3fCNhczJWAkTFVmn3b7Y-18" value="" style="rounded=0;whiteSpace=wrap;html=1;" vertex="1" parent="1">
          <mxGeometry x="490" y="670" width="120" height="60" as="geometry" />
        </mxCell>
        <mxCell id="3fCNhczJWAkTFVmn3b7Y-19" value="Spínače&lt;br&gt;+ Pull down R" style="text;html=1;strokeColor=none;fillColor=none;align=center;verticalAlign=middle;whiteSpace=wrap;rounded=0;" vertex="1" parent="1">
          <mxGeometry x="490" y="670" width="120" height="60" as="geometry" />
        </mxCell>
        <mxCell id="3fCNhczJWAkTFVmn3b7Y-20" value="Aktivní bzučák" style="text;html=1;strokeColor=none;fillColor=none;align=center;verticalAlign=middle;whiteSpace=wrap;rounded=0;" vertex="1" parent="1">
          <mxGeometry x="326" y="690" width="110" height="40" as="geometry" />
        </mxCell>
        <mxCell id="3fCNhczJWAkTFVmn3b7Y-21" value="" style="rounded=0;whiteSpace=wrap;html=1;" vertex="1" parent="1">
          <mxGeometry x="140" y="420" width="120" height="60" as="geometry" />
        </mxCell>
        <mxCell id="3fCNhczJWAkTFVmn3b7Y-22" value="Nabíjecí obvod" style="text;html=1;strokeColor=none;fillColor=none;align=center;verticalAlign=middle;whiteSpace=wrap;rounded=0;" vertex="1" parent="1">
          <mxGeometry x="180" y="440" width="40" height="20" as="geometry" />
        </mxCell>
        <mxCell id="3fCNhczJWAkTFVmn3b7Y-37" value="" style="endArrow=none;html=1;entryX=0.41;entryY=1.023;entryDx=0;entryDy=0;entryPerimeter=0;exitX=0.75;exitY=0;exitDx=0;exitDy=0;" edge="1" parent="1" source="3fCNhczJWAkTFVmn3b7Y-1" target="3fCNhczJWAkTFVmn3b7Y-6">
          <mxGeometry width="50" height="50" relative="1" as="geometry">
            <mxPoint x="420" y="550" as="sourcePoint" />
            <mxPoint x="490" y="500" as="targetPoint" />
          </mxGeometry>
        </mxCell>
        <mxCell id="3fCNhczJWAkTFVmn3b7Y-38" value="" style="endArrow=none;html=1;entryX=0;entryY=0.5;entryDx=0;entryDy=0;exitX=1;exitY=0.25;exitDx=0;exitDy=0;" edge="1" parent="1" source="3fCNhczJWAkTFVmn3b7Y-1" target="3fCNhczJWAkTFVmn3b7Y-8">
          <mxGeometry width="50" height="50" relative="1" as="geometry">
            <mxPoint x="490" y="590" as="sourcePoint" />
            <mxPoint x="540" y="540" as="targetPoint" />
          </mxGeometry>
        </mxCell>
        <mxCell id="3fCNhczJWAkTFVmn3b7Y-39" value="" style="endArrow=none;html=1;exitX=1.019;exitY=0.659;exitDx=0;exitDy=0;exitPerimeter=0;entryX=0;entryY=0.5;entryDx=0;entryDy=0;" edge="1" parent="1" source="3fCNhczJWAkTFVmn3b7Y-1" target="3fCNhczJWAkTFVmn3b7Y-10">
          <mxGeometry width="50" height="50" relative="1" as="geometry">
            <mxPoint x="510" y="640" as="sourcePoint" />
            <mxPoint x="560" y="590" as="targetPoint" />
          </mxGeometry>
        </mxCell>
        <mxCell id="3fCNhczJWAkTFVmn3b7Y-40" value="" style="endArrow=none;html=1;entryX=0.5;entryY=1;entryDx=0;entryDy=0;exitX=0.5;exitY=0;exitDx=0;exitDy=0;" edge="1" parent="1" source="3fCNhczJWAkTFVmn3b7Y-13" target="3fCNhczJWAkTFVmn3b7Y-21">
          <mxGeometry width="50" height="50" relative="1" as="geometry">
            <mxPoint x="270" y="570" as="sourcePoint" />
            <mxPoint x="320" y="520" as="targetPoint" />
          </mxGeometry>
        </mxCell>
        <mxCell id="3fCNhczJWAkTFVmn3b7Y-41" value="" style="endArrow=none;html=1;exitX=1;exitY=0.5;exitDx=0;exitDy=0;" edge="1" parent="1" source="3fCNhczJWAkTFVmn3b7Y-14" target="3fCNhczJWAkTFVmn3b7Y-1">
          <mxGeometry width="50" height="50" relative="1" as="geometry">
            <mxPoint x="290" y="600" as="sourcePoint" />
            <mxPoint x="340" y="550" as="targetPoint" />
          </mxGeometry>
        </mxCell>
        <mxCell id="3fCNhczJWAkTFVmn3b7Y-42" value="" style="endArrow=none;html=1;entryX=-0.007;entryY=0.637;entryDx=0;entryDy=0;entryPerimeter=0;" edge="1" parent="1" source="3fCNhczJWAkTFVmn3b7Y-13" target="3fCNhczJWAkTFVmn3b7Y-12">
          <mxGeometry width="50" height="50" relative="1" as="geometry">
            <mxPoint x="310" y="540" as="sourcePoint" />
            <mxPoint x="330" y="490" as="targetPoint" />
          </mxGeometry>
        </mxCell>
        <mxCell id="3fCNhczJWAkTFVmn3b7Y-43" value="" style="endArrow=none;html=1;exitX=1;exitY=0.5;exitDx=0;exitDy=0;entryX=0;entryY=0.5;entryDx=0;entryDy=0;" edge="1" parent="1" source="3fCNhczJWAkTFVmn3b7Y-12" target="3fCNhczJWAkTFVmn3b7Y-6">
          <mxGeometry width="50" height="50" relative="1" as="geometry">
            <mxPoint x="460" y="510" as="sourcePoint" />
            <mxPoint x="510" y="460" as="targetPoint" />
          </mxGeometry>
        </mxCell>
        <mxCell id="3fCNhczJWAkTFVmn3b7Y-44" value="" style="endArrow=none;html=1;entryX=0;entryY=0.75;entryDx=0;entryDy=0;exitX=1;exitY=0.5;exitDx=0;exitDy=0;" edge="1" parent="1" source="3fCNhczJWAkTFVmn3b7Y-4" target="3fCNhczJWAkTFVmn3b7Y-1">
          <mxGeometry width="50" height="50" relative="1" as="geometry">
            <mxPoint x="310" y="670" as="sourcePoint" />
            <mxPoint x="360" y="620" as="targetPoint" />
          </mxGeometry>
        </mxCell>
        <mxCell id="3fCNhczJWAkTFVmn3b7Y-45" value="" style="endArrow=none;html=1;entryX=0.32;entryY=0.99;entryDx=0;entryDy=0;entryPerimeter=0;exitX=0.5;exitY=0;exitDx=0;exitDy=0;" edge="1" parent="1" source="3fCNhczJWAkTFVmn3b7Y-15" target="3fCNhczJWAkTFVmn3b7Y-1">
          <mxGeometry width="50" height="50" relative="1" as="geometry">
            <mxPoint x="380" y="680" as="sourcePoint" />
            <mxPoint x="430" y="630" as="targetPoint" />
          </mxGeometry>
        </mxCell>
        <mxCell id="3fCNhczJWAkTFVmn3b7Y-46" value="" style="endArrow=none;html=1;entryX=0.683;entryY=0.99;entryDx=0;entryDy=0;entryPerimeter=0;exitX=0.5;exitY=0;exitDx=0;exitDy=0;" edge="1" parent="1" source="3fCNhczJWAkTFVmn3b7Y-19" target="3fCNhczJWAkTFVmn3b7Y-1">
          <mxGeometry width="50" height="50" relative="1" as="geometry">
            <mxPoint x="440" y="670" as="sourcePoint" />
            <mxPoint x="490" y="620" as="targetPoint" />
          </mxGeometry>
        </mxCell>
        <mxCell id="3fCNhczJWAkTFVmn3b7Y-48" value="&lt;font style=&quot;font-size: 20px&quot;&gt;Řídící jednotka&lt;/font&gt;" style="text;html=1;strokeColor=none;fillColor=none;align=center;verticalAlign=middle;whiteSpace=wrap;rounded=0;" vertex="1" parent="1">
          <mxGeometry x="80" y="340" width="690" height="60" as="geometry" />
        </mxCell>
        <mxCell id="3fCNhczJWAkTFVmn3b7Y-50" value="" style="endArrow=none;html=1;entryX=0.75;entryY=1;entryDx=0;entryDy=0;exitX=0.25;exitY=1;exitDx=0;exitDy=0;" edge="1" parent="1" source="3fCNhczJWAkTFVmn3b7Y-48" target="3fCNhczJWAkTFVmn3b7Y-48">
          <mxGeometry width="50" height="50" relative="1" as="geometry">
            <mxPoint x="230" y="410" as="sourcePoint" />
            <mxPoint x="280" y="360" as="targetPoint" />
          </mxGeometry>
        </mxCell>
      </root>
    </mxGraphModel>
  </diagram>
</mxfile>
